<svg xmlns="http://www.w3.org/2000/svg" viewBox="0 0 200 88" fill="none">
  <defs>
    <linearGradient id="emc-green" x1="0" y1="0" x2="1" y2="1">
      <stop stop-color="#34d058"/>
      <stop offset="1" stop-color="#1fa34a"/>
    </linearGradient>
    <linearGradient id="emc-green-dark" x1="0" y1="0" x2="0" y2="1">
      <stop stop-color="#17803a"/>
      <stop offset="1" stop-color="#0f5c2a"/>
    </linearGradient>
    <linearGradient id="emc-lime" x1="0" y1="0" x2="1" y2="0">
      <stop stop-color="#d9f99d"/>
      <stop offset="1" stop-color="#84cc16"/>
    </linearGradient>
  </defs>

  <g transform="translate(0 8)">
    <path d="M0 0 L32 0 L42 16 L10 16 Z" fill="url(#emc-green)"/>
    <path d="M0 0 L10 16 L0 16 Z" fill="url(#emc-lime)"/>
    <path d="M0 22 L32 22 L42 38 L10 38 Z" fill="url(#emc-green)"/>
    <path d="M0 22 L10 38 L0 38 Z" fill="url(#emc-lime)"/>
    <path d="M0 44 L32 44 L42 60 L10 60 Z" fill="url(#emc-green-dark)"/>
    <path d="M0 44 L10 60 L0 60 Z" fill="url(#emc-lime)"/>
  </g>

  <text x="52" y="36" fill="#ffffff" font-family="system-ui, -apple-system, 'Segoe UI', sans-serif" font-size="18" font-weight="700" letter-spacing="0.06em">EMP&#211;RIO</text>
  <text x="52" y="58" fill="#34d058" font-family="system-ui, -apple-system, 'Segoe UI', sans-serif" font-size="13" font-weight="600" letter-spacing="0.16em">MOTORS</text>
</svg>
